<?xml version="1.0" encoding="iso-8859-1"?>
<!-- Generator: Adobe Illustrator 16.0.0, SVG Export Plug-In . SVG Version: 6.00 Build 0)  -->
<!DOCTYPE svg PUBLIC "-//W3C//DTD SVG 1.1//EN" "http://www.w3.org/Graphics/SVG/1.1/DTD/svg11.dtd">
<svg version="1.1" id="Capa_1" xmlns="http://www.w3.org/2000/svg" xmlns:xlink="http://www.w3.org/1999/xlink" x="0px" y="0px"
	 width="455.213px" height="455.213px" viewBox="0 0 455.213 455.213" style="enable-background:new 0 0 455.213 455.213;"
	 xml:space="preserve">
<g>
	<g>
		<g>
			<path d="M405.354,275.316c-1.301-0.757-2.627-1.429-3.967-2.035v-98.464c1.34-0.606,2.666-1.28,3.967-2.034
				c21.277-12.283,28.566-39.483,16.281-60.761c-12.277-21.271-39.484-28.561-60.756-16.277c-1.306,0.75-2.552,1.561-3.746,2.42
				l-85.271-49.234c0.146-1.465,0.225-2.949,0.225-4.452C272.087,19.915,252.173,0,227.605,0c-24.564,0-44.479,19.914-44.479,44.479
				c0,1.503,0.076,2.987,0.225,4.452L98.08,98.165c-1.199-0.859-2.443-1.67-3.748-2.42c-21.271-12.283-48.477-4.994-60.756,16.281
				c-12.287,21.273-4.994,48.474,16.281,60.757c1.301,0.754,2.627,1.429,3.965,2.034v98.464c-1.338,0.606-2.664,1.278-3.965,2.035
				c-21.275,12.282-28.564,39.481-16.281,60.761c7.129,12.351,19.291,19.975,32.398,21.805
				c4.965-13.071,11.986-22.754,22.213-26.825l45.135-17.998h-16.758c-0.121-7.308-2.037-14.686-5.949-21.463
				c-3.912-6.774-9.342-12.125-15.613-15.885l21.541-37.3l38.17,66.116l6.809-2.715l5.52-4.648l-42.207-73.114l12.713-22.021
				c-0.355-4.813-0.572-9.753-0.627-14.831c-0.049-4.841,0.199-9.516,0.707-14.031l-21.084,36.522L95.003,172.39
				c6.271-3.758,11.701-9.108,15.613-15.884c3.91-6.778,5.828-14.156,5.947-21.464h34.225c3.461-5.305,7.537-10.104,12.189-14.362
				h-48.531c-1.359-4.234-3.357-8.269-5.938-11.954l78.775-45.479c1.896,4.079,4.391,7.826,7.385,11.118l-22.633,39.195
				c6.758-4.546,14.393-8.188,22.84-10.833l11.168-19.345c6.393,3.547,13.74,5.574,21.561,5.574c7.824,0,15.17-2.027,21.563-5.575
				l11.177,19.359c8.453,2.647,16.092,6.298,22.852,10.852l-22.651-39.228c2.994-3.292,5.489-7.039,7.387-11.118l78.771,45.479
				c-2.58,3.686-4.576,7.72-5.936,11.954h-48.56c4.652,4.258,8.729,9.058,12.191,14.362h34.252
				c0.117,7.307,2.035,14.685,5.947,21.461c3.91,6.777,9.342,12.127,15.61,15.886l-21.541,37.3l-21.127-36.598
				c0.517,4.537,0.765,9.235,0.711,14.102c-0.053,5.06-0.268,9.981-0.618,14.777l12.748,22.08l-42.222,73.133l5.496,4.631
				l6.836,2.728l38.176-66.128l21.541,37.299c-6.27,3.756-11.698,9.106-15.608,15.883c-3.912,6.777-5.828,14.158-5.949,21.466
				h-16.787l45.133,17.994c10.23,4.068,17.254,13.752,22.224,26.83c13.114-1.824,25.286-9.451,32.42-21.809
				C433.921,314.8,426.632,287.6,405.354,275.316z M108.243,224.049l-26.734,46.313c-4.348-0.94-8.838-1.229-13.322-0.836v-90.956
				c4.484,0.392,8.975,0.105,13.322-0.836L108.243,224.049z M387.024,269.525c-4.484-0.393-8.977-0.104-13.32,0.838l-26.733-46.313
				l26.733-46.314c4.349,0.941,8.836,1.228,13.32,0.836V269.525z"/>
			<path d="M227.627,298.719c0,0,76.52,3.104,76.52-108.271c0-49.531-25.853-75.235-76.52-75.235
				c-49.604,0-77.057,25.705-76.557,75.235C151.798,258.284,180.626,299.438,227.627,298.719z"/>
			<path d="M362.972,350.207l-76.457-30.482l-17.904-15.089c-4.729-3.995-11.715-3.7-16.1,0.659L227.62,330.05l-24.967-24.761
				c-4.387-4.354-11.363-4.637-16.088-0.653l-17.906,15.089L92.2,350.211c-24.619,9.807-24.602,96.998-26.715,105.002h324.239
				C387.614,447.229,387.603,360.003,362.972,350.207z"/>
		</g>
	</g>
</g>
<g>
</g>
<g>
</g>
<g>
</g>
<g>
</g>
<g>
</g>
<g>
</g>
<g>
</g>
<g>
</g>
<g>
</g>
<g>
</g>
<g>
</g>
<g>
</g>
<g>
</g>
<g>
</g>
<g>
</g>
</svg>
